<?xml version="1.0" encoding="UTF-8" standalone="no"?>
<!-- Created with Inkscape (http://www.inkscape.org/) -->

<svg
   width="86.380478mm"
   height="21.672163mm"
   viewBox="0 0 86.380478 21.672163"
   version="1.1"
   id="svg5"
   inkscape:version="1.2.2 (732a01da63, 2022-12-09)"
   sodipodi:docname="logo_2023.svg"
   xmlns:inkscape="http://www.inkscape.org/namespaces/inkscape"
   xmlns:sodipodi="http://sodipodi.sourceforge.net/DTD/sodipodi-0.dtd"
   xmlns="http://www.w3.org/2000/svg"
   xmlns:svg="http://www.w3.org/2000/svg">
  <sodipodi:namedview
     id="namedview7"
     pagecolor="#ffffff"
     bordercolor="#000000"
     borderopacity="0.25"
     inkscape:showpageshadow="2"
     inkscape:pageopacity="0.0"
     inkscape:pagecheckerboard="0"
     inkscape:deskcolor="#d1d1d1"
     inkscape:document-units="mm"
     showgrid="false"
     inkscape:zoom="0.84096521"
     inkscape:cx="282.41359"
     inkscape:cy="189.66302"
     inkscape:window-width="1498"
     inkscape:window-height="595"
     inkscape:window-x="1390"
     inkscape:window-y="828"
     inkscape:window-maximized="0"
     inkscape:current-layer="layer1" />
  <defs
     id="defs2" />
  <g
     inkscape:label="图层 1"
     inkscape:groupmode="layer"
     id="layer1"
     transform="translate(-45.734278,-138.45994)">
    <path
       id="path273"
       style="font-size:22.5778px;-inkscape-font-specification:'Alimama FangYuanTi VF Heavy';stroke-width:0.264583"
       d="m 51.893108,138.47245 c -0.780187,-0.0407 -1.161231,0.79427 -1.029297,1.47031 0.01639,2.60421 -0.03229,5.21396 0.02344,7.81484 0.171774,0.94248 1.50387,1.0198 2.140625,0.52735 0.565167,-0.72362 0.179018,-1.72894 0.292969,-2.57344 -0.03412,-2.17295 0.06646,-4.35872 -0.04688,-6.52422 -0.15124,-0.63033 -0.820403,-0.77512 -1.380859,-0.71484 z m -3.247116,0.0576 c -0.780187,-0.0407 -1.161231,0.79427 -1.029297,1.47031 0.01639,2.60421 -0.03229,5.21396 0.02344,7.81484 0.171774,0.94248 1.50387,1.0198 2.140625,0.52735 0.565167,-0.72362 0.179018,-1.72894 0.292969,-2.57344 -0.03412,-2.17295 0.06646,-4.35872 -0.04688,-6.52422 -0.15124,-0.63033 -0.820403,-0.77512 -1.380859,-0.71484 z m 6.744633,0.59779 c -0.841154,-0.0522 -1.168625,0.88159 -0.994141,1.57421 0.845742,1.74096 0.311826,0.78336 1.951172,3.04883 0.478238,0.60952 1.010859,1.17753 1.601563,1.67969 -1.065044,0.59372 -2.282402,0.82875 -3.398438,1.26758 -0.641304,0.47957 -0.466118,1.63403 0.146485,2.0664 0.832378,0.31582 1.70675,-0.21484 2.518484,-0.40304 1.01816,-0.34626 1.997507,-0.81001 2.90925,-1.38016 1.622278,0.91338 3.400403,1.6236 5.240234,1.91406 0.965014,-0.0415 1.287207,-1.4799 0.699219,-2.10937 -0.754437,-0.4774 -1.727055,-0.43708 -2.537077,-0.81614 -0.307823,-0.22196 -1.584529,-0.34365 -1.078611,-0.7365 1.325358,-1.26617 2.571937,-2.72189 3.243904,-4.44465 0.334869,-0.90998 -0.532372,-1.78114 -1.442669,-1.66287 -2.953083,0.001 -5.906495,-0.003 -8.859375,0.002 z m 7.214844,2.36523 c -0.695654,1.00285 -1.555061,1.89477 -2.533203,2.625 -0.950052,-0.72235 -1.784172,-1.60652 -2.410157,-2.625 z m -13.65625,7.41016 c -0.941104,-0.0601 -1.642833,0.84339 -1.50586,1.74296 0.03792,1.70846 -0.07338,3.43234 0.05078,5.13204 0.269528,0.86479 1.538623,0.90598 2.160156,0.42382 0.564952,-0.72919 0.178853,-1.74055 0.292969,-2.58906 v -2.29765 c 4.011718,-1e-5 8.023437,0 12.035156,0 0.04563,1.48366 -0.08823,2.98554 0.06055,4.45898 0.305012,0.8314 1.530746,0.85216 2.146484,0.38086 0.572737,-0.72563 0.181064,-1.73917 0.296875,-2.58711 -0.06301,-1.24266 0.128146,-2.51332 -0.09766,-3.73906 -0.355787,-1.02318 -1.566201,-0.97421 -2.447266,-0.92774 -4.330696,10e-4 -8.661654,-0.003 -12.992187,0.002 z m 6.826172,2.43945 c -0.838675,-0.0487 -1.204409,0.84465 -1.19336,1.55273 -0.43368,2.20547 -2.646548,3.40126 -4.608384,4.03969 -1.207767,0.45855 -2.509315,0.59366 -3.737319,0.9525 -0.771178,0.45172 -0.601546,1.81938 0.152344,2.19727 0.923245,0.19498 1.857515,-0.2684 2.769531,-0.39844 2.711021,-0.72483 5.630246,-1.89185 7.144531,-4.40625 0.546492,-0.98704 0.947292,-2.14737 0.830078,-3.28125 -0.15372,-0.60909 -0.829708,-0.70249 -1.357421,-0.65625 z m 1.787109,3.71094 c -0.850412,0.0728 -1.211455,1.26209 -0.857422,1.9375 0.593355,0.65273 1.59928,0.66429 2.367272,1.04056 1.980884,0.67123 3.939045,1.42582 5.933509,2.04733 0.958563,0.15001 1.425573,-1.1193 1.132813,-1.86719 -0.542108,-0.70486 -1.570681,-0.69272 -2.327727,-1.07155 -2.012266,-0.68171 -4.002058,-1.44681 -6.027742,-2.07884 -0.07335,0.002 -0.147444,-0.025 -0.220703,-0.008 z" />
    <path
       id="path275"
       style="font-size:22.5778px;-inkscape-font-specification:'Alimama FangYuanTi VF Heavy';stroke-width:0.264583"
       d="m 69.137854,138.77709 c -0.795248,-0.0459 -1.188748,0.80266 -1.054688,1.49179 0.05903,0.95202 -0.29998,2.35057 0.812567,2.83092 0.925599,0.29981 1.932478,0.0736 2.890558,0.14408 0,1.43034 0,2.86068 0,4.29102 -1.226994,0.0572 -2.481625,-0.11101 -3.693359,0.0762 -0.81364,0.31692 -0.843801,1.58167 -0.300781,2.14844 0.736268,0.50946 1.717124,0.14921 2.553906,0.25781 0.488794,0.12169 1.639523,-0.35546 1.320005,0.4975 -0.256456,2.78229 -1.637076,5.3855 -3.711886,7.24142 -0.748185,0.76259 0.159505,2.03012 1.06649,2.06186 0.850005,-0.1193 1.312078,-1.001 1.900343,-1.53939 2.04074,-2.25574 3.107212,-5.25316 3.308642,-8.26139 1.174717,-0.0487 2.369756,0.0945 3.533203,-0.0644 0.823658,-0.31449 0.867995,-1.58868 0.324219,-2.16602 -0.733813,-0.50079 -1.704937,-0.14412 -2.536328,-0.25195 -0.549539,-0.0706 -1.543703,0.30334 -1.260547,-0.6 0,-1.23034 0,-2.46068 0,-3.69102 1.097585,-0.0589 2.226419,0.11514 3.30664,-0.0801 0.793248,-0.32784 0.822023,-1.57658 0.279297,-2.13477 -0.736101,-0.48873 -1.699199,-0.13732 -2.528515,-0.24414 -1.586849,0 -3.173698,0 -4.760547,0 0.04423,-0.72788 0.113046,-1.87219 -0.863282,-1.99609 -0.194741,-0.0193 -0.390649,-0.0159 -0.585937,-0.0117 z m 11.314453,1.26367 c -0.969152,-0.0709 -1.691588,0.86617 -1.554687,1.78984 0.01449,5.42981 -0.02887,10.86174 0.02148,16.29024 0.09419,1.00734 1.188572,1.40147 2.070312,1.26562 1.920452,-0.0398 3.854589,0.0776 5.767193,-0.0545 0.986875,-0.16893 1.236083,-1.28633 1.125385,-2.13539 -0.01713,-5.299 0.03413,-10.60079 -0.02539,-15.89805 -0.11566,-0.98746 -1.184884,-1.39495 -2.064453,-1.25976 -1.77991,0.001 -3.560115,-0.003 -5.339844,0.002 z m 4.902344,2.52539 c 0,4.76432 0,9.52865 0,14.29297 -1.309896,0 -2.619792,0 -3.929688,0 0,-4.76432 0,-9.52865 0,-14.29297 1.309896,0 2.619792,0 3.929688,0 z m -10.027344,9.59375 c -0.773034,0.0597 -1.770482,0.7374 -1.408203,1.62305 0.785535,1.51825 1.525055,3.0754 2.390625,4.54687 0.638742,0.70032 1.821278,0.11134 2.148437,-0.62109 0.141105,-0.90398 -0.650021,-1.62433 -0.936159,-2.43298 -0.551459,-0.94034 -0.897255,-2.02661 -1.567747,-2.88343 -0.168695,-0.15479 -0.39907,-0.23582 -0.626953,-0.23242 z" />
    <path
       id="path277"
       style="font-size:22.5778px;-inkscape-font-specification:'Alimama FangYuanTi VF Heavy';stroke-width:0.264583"
       d="m 102.73681,138.53205 c -0.78541,-0.049 -1.1926,0.78398 -1.05469,1.47031 0,0.67592 0,1.35183 0,2.02774 -0.76161,0.0509 -1.926136,-0.26874 -2.265626,0.67773 -0.19965,0.71052 -0.0554,1.80007 0.863286,1.85938 0.4245,0.13767 1.31212,-0.24067 1.40234,0.21172 -0.0195,3.6841 0.24516,7.43917 -1.18977,10.9262 -0.21028,0.31022 -0.30677,1.32061 -0.703506,0.69508 -0.24457,-0.31607 -0.960418,0.0319 -0.81961,-0.49042 -0.0199,-5.06736 0.0396,-10.1395 -0.0293,-15.20391 -0.0993,-0.98888 -1.185567,-1.32473 -2.037107,-1.20508 -1.812492,0.0384 -3.638348,-0.0755 -5.443033,0.0542 -1.030762,0.17511 -1.181165,1.35977 -1.09017,2.21415 0,4.81354 0,9.62708 0,14.44063 -0.730109,-0.15124 -1.490625,0.41558 -1.376953,1.19375 -0.140453,0.75018 0.50812,1.45211 1.272266,1.3082 2.908593,0 5.817187,0 8.725777,0 -0.0885,0.83286 0.92654,1.50573 1.681636,1.33008 0.77032,-0.36785 1.01648,-1.31177 1.45663,-1.98694 1.91671,-3.57803 2.12204,-7.74001 2.03361,-11.71306 0.069,-0.55194 -0.13672,-1.37865 0.1,-1.76289 1.07409,0 2.14818,0 3.22226,0 0,4.30533 0,8.61067 0,12.91601 -0.79428,0.10082 -1.93844,-0.3192 -2.42773,0.53711 -0.30347,0.71763 -0.15795,1.93399 0.80664,2.00195 1.05989,-0.042 2.15922,0.14329 3.19531,-0.10742 1.10353,-0.40623 0.9087,-1.74263 0.90625,-2.67265 -0.0213,-4.6664 0.0423,-9.33792 -0.0312,-14.00118 -0.11262,-0.98646 -1.19529,-1.35132 -2.05859,-1.22265 -1.23763,0 -2.47526,0 -3.71289,0 -0.06,-0.9583 0.11848,-1.95231 -0.084,-2.89063 -0.20323,-0.56381 -0.82154,-0.65176 -1.34179,-0.60742 z m -6.224608,3.47266 c 0,0.89648 0,1.79297 0,2.68945 -1.227864,0 -2.455729,0 -3.683594,0 0,-0.89648 0,-1.79297 0,-2.68945 1.227865,0 2.45573,0 3.683594,0 z m 0,5.19336 c 0,1.1595 0,2.31901 0,3.47851 -1.227864,0 -2.455729,0 -3.683594,0 0,-1.1595 0,-2.31901 0,-3.47851 1.227865,0 2.45573,0 3.683594,0 z m 0,5.98242 c 0,1.00976 0,2.01953 0,3.0293 -1.227864,0 -2.455729,0 -3.683594,0 0,-1.00977 0,-2.01954 0,-3.0293 1.227865,0 2.45573,0 3.683594,0 z" />
    <path
       id="path279"
       style="font-size:22.5778px;-inkscape-font-specification:'Alimama FangYuanTi VF Heavy';stroke-width:2;stroke-dasharray:none;paint-order:stroke fill markers"
       d="m 129.61184,139.02818 c -5.42662,0.60843 -10.89257,0.37896 -16.33985,0.44141 -1.00124,0.12465 -1.13145,1.58009 -0.5332,2.19531 0.73381,0.5008 1.70494,0.14413 2.53633,0.25195 1.74505,0 3.4901,0 5.23515,0 0,1.00912 0,2.01823 0,3.02735 -2.36743,0.0318 -4.74663,-0.0621 -7.10717,0.0441 -0.88869,0.24246 -0.95091,1.5798 -0.39283,2.16294 0.73382,0.50079 1.70494,0.14413 2.53633,0.25195 1.65456,0 3.30912,0 4.96367,0 0,1.0319 0,2.0638 0,3.0957 -2.87055,0.0149 -5.74522,-0.0294 -8.61328,0.0215 -0.97137,0.15866 -1.07823,1.59183 -0.48242,2.1914 0.7361,0.48873 1.6992,0.13732 2.52852,0.24415 2.18906,0 4.37812,0 6.56718,0 0,1.36328 0,2.72656 0,4.08984 -0.8174,0.11573 -1.93907,-0.33062 -2.49609,0.48437 -0.32689,0.70414 -0.20085,1.92503 0.75781,2.00782 1.12012,-0.0398 2.27984,0.14741 3.37695,-0.10547 1.1063,-0.40318 0.91379,-1.74171 0.91016,-2.67266 0,-1.26797 0,-2.53594 0,-3.8039 2.73381,-0.015 5.4719,0.0295 8.20313,-0.0215 0.96367,-0.15383 1.06308,-1.52809 0.53515,-2.16016 -0.7377,-0.53713 -1.73338,-0.16406 -2.57929,-0.27539 -2.053,0 -4.10599,0 -6.15899,0 0,-1.0319 0,-2.0638 0,-3.0957 2.23191,-0.0334 4.4763,0.065 6.70093,-0.0461 0.89146,-0.24119 0.95322,-1.58996 0.38501,-2.16879 -0.7361,-0.48873 -1.6992,-0.13732 -2.52852,-0.24414 -1.51914,0 -3.03828,0 -4.55742,0 0,-1.01563 0,-2.03125 0,-3.04688 2.36465,-0.0698 4.74461,-0.16495 7.08594,-0.48633 0.90694,-0.34515 0.8289,-1.85108 0.043,-2.28711 -0.18354,-0.071 -0.37858,-0.11264 -0.57617,-0.0957 z" />
  </g>
</svg>
